<svg width="1600" height="900" viewBox="0 0 1600 900" fill="none" xmlns="http://www.w3.org/2000/svg">
  <rect width="1600" height="900" rx="32" fill="#060A12"/>
  <rect x="40" y="40" width="1520" height="820" rx="24" fill="#0A111D" stroke="#1A2A40" stroke-width="2"/>
  <rect x="82" y="92" width="1436" height="64" rx="16" fill="#121E33"/>
  <rect x="110" y="114" width="290" height="20" rx="10" fill="#7AB1E2"/>
  <rect x="82" y="182" width="428" height="636" rx="20" fill="#0D192B" stroke="#1D2F49"/>
  <rect x="114" y="220" width="364" height="44" rx="12" fill="#173D69"/>
  <rect x="114" y="292" width="338" height="20" rx="10" fill="#2D4869"/>
  <rect x="114" y="326" width="312" height="20" rx="10" fill="#2A415E"/>
  <rect x="114" y="360" width="340" height="20" rx="10" fill="#2A415E"/>
  <rect x="114" y="394" width="280" height="20" rx="10" fill="#2A415E"/>
  <rect x="114" y="470" width="364" height="320" rx="16" fill="#101E31"/>
  <rect x="146" y="504" width="180" height="14" rx="7" fill="#B7D6F2"/>
  <rect x="146" y="536" width="286" height="12" rx="6" fill="#334D6F"/>
  <rect x="146" y="564" width="248" height="12" rx="6" fill="#2A415F"/>
  <rect x="540" y="182" width="978" height="636" rx="20" fill="#0E1A2D" stroke="#1E334F"/>
  <rect x="574" y="220" width="912" height="170" rx="16" fill="url(#paint0_linear_201_3)"/>
  <rect x="612" y="272" width="540" height="24" rx="12" fill="#D5E6F7"/>
  <rect x="612" y="312" width="380" height="16" rx="8" fill="#AAC7E3"/>
  <rect x="574" y="420" width="438" height="364" rx="16" fill="#111F34"/>
  <rect x="604" y="454" width="220" height="14" rx="7" fill="#B8D7F3"/>
  <rect x="604" y="486" width="360" height="12" rx="6" fill="#324B6B"/>
  <rect x="604" y="514" width="306" height="12" rx="6" fill="#2A425F"/>
  <rect x="1042" y="420" width="444" height="364" rx="16" fill="#111F34"/>
  <path d="M1080 706L1160 640L1238 676L1324 592L1410 620" stroke="#74ACE0" stroke-width="8" stroke-linecap="round" stroke-linejoin="round"/>
  <circle cx="1160" cy="640" r="10" fill="#C6DDF4"/>
  <circle cx="1238" cy="676" r="10" fill="#C6DDF4"/>
  <circle cx="1324" cy="592" r="10" fill="#C6DDF4"/>
  <defs>
    <linearGradient id="paint0_linear_201_3" x1="574" y1="220" x2="1486" y2="390" gradientUnits="userSpaceOnUse">
      <stop stop-color="#163C67"/>
      <stop offset="1" stop-color="#1D6BAF"/>
    </linearGradient>
  </defs>
</svg>
